<?xml version="1.0" standalone="no"?>
<!DOCTYPE svg PUBLIC "-//W3C//DTD SVG 20010904//EN"
 "http://www.w3.org/TR/2001/REC-SVG-20010904/DTD/svg10.dtd">
<svg version="1.0" xmlns="http://www.w3.org/2000/svg"
 width="225.000000pt" height="225.000000pt" viewBox="0 0 225.000000 225.000000"
 preserveAspectRatio="xMidYMid meet">
<metadata>
Created by potrace 1.11, written by Peter Selinger 2001-2013
</metadata>
<g transform="translate(0.000000,225.000000) scale(0.100000,-0.100000)"
fill="#000000" stroke="none">
<path d="M1000 2163 c-36 -20 -67 -40 -68 -44 -2 -5 -7 -7 -12 -4 -4 3 -13
-14 -18 -38 -11 -41 -39 -64 -86 -71 -31 -4 -171 -166 -180 -208 -2 -7 -9 -28
-16 -46 -12 -33 -14 -34 -55 -27 -55 8 -75 -10 -70 -64 4 -46 17 -73 48 -98
29 -22 44 -50 51 -89 2 -16 5 -29 6 -29 1 0 3 -11 6 -25 6 -32 56 -130 67
-130 5 0 6 -4 3 -9 -3 -5 1 -12 10 -15 8 -3 12 -10 9 -16 -3 -5 -2 -10 4 -10
13 0 61 -48 61 -60 0 -6 -4 -9 -8 -7 -5 1 -26 -14 -48 -34 -43 -38 -95 -135
-99 -184 -2 -16 -6 -38 -10 -48 -9 -22 -10 -152 -2 -187 3 -14 11 -41 17 -60
17 -52 20 -70 12 -71 -4 0 -27 -1 -52 -3 -52 -3 -92 -24 -88 -46 2 -8 -1 -16
-5 -17 -4 -2 -6 -2 -5 0 2 1 -11 17 -27 36 -35 38 -73 60 -97 55 -10 -2 -25
-5 -33 -7 -22 -5 -60 -39 -70 -62 -23 -59 -12 -165 18 -165 6 0 7 -3 4 -6 -3
-4 6 -18 21 -33 15 -14 29 -33 31 -41 2 -8 10 -42 17 -74 10 -42 24 -68 45
-89 28 -27 36 -29 80 -24 26 3 67 15 91 26 24 11 73 31 110 44 63 24 66 24 81
7 8 -10 24 -17 34 -16 9 2 24 -3 31 -11 21 -21 49 -15 71 14 12 16 25 33 31
40 5 7 10 17 10 23 0 6 5 8 10 5 6 -3 10 -17 10 -29 0 -13 8 -34 18 -46 15
-19 22 -21 40 -11 12 7 24 25 28 46 6 33 7 34 33 22 37 -19 144 -14 175 7 28
18 29 18 40 -36 6 -28 41 -47 58 -30 5 5 15 26 22 47 l13 37 21 -29 c40 -53
56 -65 79 -59 13 3 33 9 46 12 12 3 39 -2 59 -10 21 -9 40 -16 43 -16 3 0 26
-22 51 -49 37 -40 50 -48 75 -46 45 4 74 23 92 60 10 21 35 43 74 65 91 51
125 99 125 174 -1 47 -30 82 -83 98 -33 9 -43 8 -79 -11 -50 -26 -53 -26 -41
-3 8 15 4 27 -20 55 -35 43 -77 55 -119 34 -16 -9 -30 -13 -30 -10 0 3 16 52
36 109 28 84 35 120 36 182 0 111 -22 221 -48 243 -8 6 -14 16 -14 22 0 6 -19
28 -42 49 -49 43 -49 44 -100 78 -44 30 -43 47 8 96 19 17 34 36 34 42 0 6 5
12 11 14 5 2 11 10 13 18 1 8 9 31 18 50 14 31 31 75 33 90 1 10 24 45 25 37
0 -4 16 8 35 28 32 31 36 41 34 79 -3 51 -23 74 -62 70 -28 -3 -59 25 -64 58
-9 56 -112 186 -186 232 -21 13 -26 21 -18 30 6 7 8 16 4 19 -3 4 -2 7 3 7 6
0 11 16 12 35 l3 36 -26 -17 c-35 -23 -112 -20 -140 5 -35 33 -107 63 -154 66
-37 2 -59 -4 -111 -32z"/>
</g>
</svg>
